<svg width="42" height="33" viewBox="0 0 42 33" fill="none" xmlns="http://www.w3.org/2000/svg">
<rect x="3.28314" y="13.5683" width="14.628" height="27.209" rx="3" transform="rotate(-45 3.28314 13.5683)" fill="white"/>
<rect x="31.6539" y="3.22464" width="14.5458" height="27.2528" rx="3" transform="rotate(45 31.6539 3.22464)" fill="white"/>
<path d="M7.32808 15.7562C6.09521 14.5964 6.06547 12.6468 7.2624 11.4499L11.3939 7.3184C12.583 6.12923 14.5173 6.14973 15.681 7.36385L23 15L23 30.5L7.32808 15.7562Z" fill="#73A4FF"/>
<path d="M29.7122 7.39412C30.8572 6.09672 32.8593 6.0343 34.0829 7.25785L38.1706 11.3456C39.3493 12.5243 39.3411 14.4379 38.1523 15.6064L23 30.5L23 15L29.7122 7.39412Z" fill="#004BD8"/>
<rect width="7" height="7" rx="1" fill="white"/>
<rect x="1" y="1" width="5" height="5" rx="1" fill="#73A4FF"/>
</svg>
